<svg width="305" height="100" viewBox="0 0 305 100" fill="none" xmlns="http://www.w3.org/2000/svg">
<path d="M276.171 23.2601C291.754 23.2601 304.544 32.2278 304.544 55.8966V99.1179H292.489V56.6317C292.489 41.9306 286.021 34.286 274.701 34.286C262.205 34.286 254.56 43.6947 254.56 58.9839V99.1179H242.505V56.6317C242.505 41.9306 235.89 34.286 224.423 34.286C212.074 34.286 204.576 44.5768 204.576 59.5719V99.1179H192.522V28.6635L204.576 24.2608V34.433C208.546 28.9936 214.867 23.2601 226.481 23.2601C236.919 23.2601 245.887 27.9645 250.15 37.5202C254.707 29.4346 262.793 23.2601 276.171 23.2601Z" fill="white"/>
<path d="M163.946 99.2192V28.7706L176.602 24.041V99.2192H163.946Z" fill="white"/>
<path d="M79.0425 61.63C79.0425 84.5638 93.7437 100 116.236 100C133.584 100 145.933 88.9741 148.873 73.979H136.671C134.172 83.6817 125.939 89.2682 115.354 89.2682C101.094 89.2682 91.9765 77.7994 91.5817 61.63C91.9107 43.524 103.74 33.8449 114.766 33.8449C127.262 33.8449 136.083 41.0485 137.259 53.9855H99.1131L95.5878 63.9822H149.902C150.049 62.2181 150.196 60.454 150.196 58.8368C149.608 36.6381 135.789 23.2601 114.619 23.2601C93.4496 23.2601 79.0425 38.8433 79.0425 61.63Z" fill="white"/>
<path d="M79.0425 61.63C79.0425 84.5638 93.7437 100 116.236 100L115.354 89.2682C101.094 89.2682 91.9765 77.7994 91.5817 61.63C91.9107 43.524 103.74 33.8449 114.766 33.8449L114.619 23.2601C93.4496 23.2601 79.0425 38.8433 79.0425 61.63Z" fill="white"/>
<path d="M36.7528 23.2602C53.5121 23.2602 67.1841 32.5219 67.1841 57.3668V99.118H55.1292V58.1019C55.1292 42.5187 47.6316 34.286 34.6947 34.286C20.7286 34.286 12.0549 44.7238 12.0549 61.6301V99.118H0V3.78987L12.0549 0V36.4912C16.4653 29.4347 24.1098 23.2602 36.7528 23.2602Z" fill="white"/>
</svg>
