<svg width="147" height="48" viewBox="0 0 147 48" fill="none" xmlns="http://www.w3.org/2000/svg">
<path d="M132.562 11.1649C140.042 11.1649 146.181 15.4694 146.181 26.8304V47.5766H140.395V27.1832C140.395 20.1267 137.29 16.4573 131.856 16.4573C125.858 16.4573 122.189 20.9735 122.189 28.3123V47.5766H116.403V27.1832C116.403 20.1267 113.227 16.4573 107.723 16.4573C101.796 16.4573 98.1968 21.3968 98.1968 28.5945V47.5766H92.4104V13.7585L98.1968 11.6452V16.5278C100.102 13.9169 103.136 11.1649 108.711 11.1649C113.721 11.1649 118.026 13.423 120.072 18.0097C122.26 14.1286 126.141 11.1649 132.562 11.1649Z" fill="white"/>
<path d="M78.6938 47.6252V13.8099L84.7691 11.5397V47.6252H78.6938Z" fill="white"/>
<path d="M37.9404 29.5824C37.9404 40.5906 44.997 48 55.7935 48C64.1202 48 70.0477 42.7076 71.459 35.5099H65.6021C64.4024 40.1672 60.4508 42.8487 55.3701 42.8487C48.5252 42.8487 44.1487 37.3437 43.9592 29.5824C44.1171 20.8915 49.7954 16.2456 55.0878 16.2456C61.0859 16.2456 65.3198 19.7033 65.8843 25.913H47.5743L45.8822 30.7115H71.953C72.0235 29.8647 72.0941 29.0179 72.0941 28.2417C71.8118 17.5863 65.1787 11.1649 55.0173 11.1649C44.8558 11.1649 37.9404 18.6448 37.9404 29.5824Z" fill="white"/>
<path d="M37.9404 29.5824C37.9404 40.5906 44.997 48 55.7935 48L55.3701 42.8487C48.5252 42.8487 44.1487 37.3437 43.9592 29.5824C44.1171 20.8915 49.7954 16.2456 55.0878 16.2456L55.0173 11.1649C44.8558 11.1649 37.9404 18.6448 37.9404 29.5824Z" fill="white"/>
<path d="M17.6413 11.1649C25.6858 11.1649 32.2484 15.6105 32.2484 27.5361V47.5766H26.462V27.8889C26.462 20.409 22.8632 16.4573 16.6534 16.4573C9.94972 16.4573 5.78636 21.4674 5.78636 29.5825V47.5766H0V1.81914L5.78636 0V17.5158C7.90332 14.1286 11.5727 11.1649 17.6413 11.1649Z" fill="white"/>
</svg>
