<?xml version="1.0" encoding="utf-8"?>
<!-- Generator: Adobe Illustrator 28.1.0, SVG Export Plug-In . SVG Version: 6.00 Build 0)  -->
<svg version="1.1" id="Layer_1" xmlns="http://www.w3.org/2000/svg" xmlns:xlink="http://www.w3.org/1999/xlink" x="0px" y="0px"
	 viewBox="0 0 103 35" style="enable-background:new 0 0 103 35;" xml:space="preserve">
<style type="text/css">
	.st0{fill:#FFFFFF;}
</style>
<path class="st0" d="M92.6,8.5c5.2,0,9.5,3,9.5,10.9v14.4h-4V19.6c0-4.9-2.2-7.4-5.9-7.4c-4.2,0-6.7,3.1-6.7,8.2v13.4h-4V19.6
	c0-4.9-2.2-7.4-6-7.4c-4.1,0-6.6,3.4-6.6,8.4v13.2h-4V10.3l4-1.5v3.4c1.3-1.8,3.4-3.7,7.3-3.7c3.5,0,6.5,1.6,7.9,4.8
	C85.5,10.5,88.2,8.5,92.6,8.5z"/>
<path class="st0" d="M55.2,33.8V10.3l4.2-1.6v25H55.2z"/>
<path class="st0" d="M26.9,21.3c0,7.6,4.9,12.8,12.4,12.8c5.8,0,9.9-3.7,10.9-8.7h-4.1c-0.8,3.2-3.6,5.1-7.1,5.1
	c-4.8,0-7.8-3.8-7.9-9.2c0.1-6,4.1-9.3,7.7-9.3c4.2,0,7.1,2.4,7.5,6.7H33.6L32.5,22h18.1c0-0.6,0.1-1.2,0.1-1.7
	c-0.2-7.4-4.8-11.9-11.9-11.9S26.9,13.7,26.9,21.3z"/>
<path class="st0" d="M26.9,21.3c0,7.6,4.9,12.8,12.4,12.8L39,30.5c-4.8,0-7.8-3.8-7.9-9.2c0.1-6,4.1-9.3,7.7-9.3l0-3.5
	C31.7,8.5,26.9,13.7,26.9,21.3z"/>
<path class="st0" d="M12.9,8.5c5.6,0,10.1,3.1,10.1,11.4v13.9h-4V20.1c0-5.2-2.5-7.9-6.8-7.9c-4.7,0-7.5,3.5-7.5,9.1v12.5h-4V2
	l4-1.3v12.2C6.1,10.5,8.6,8.5,12.9,8.5z"/>
</svg>
